<svg width="128" height="128" viewBox="0 0 128 128" fill="none" xmlns="http://www.w3.org/2000/svg">
<circle cx="64" cy="64" r="64" fill="#0347FF"/>
<path d="M96.9478 73.2714L77.2636 39.5573C71.366 29.4809 56.6603 29.4809 50.7627 39.5573L31.0785 73.2714C25.1809 83.3477 32.5337 96 44.3289 96H54.3625C46.7799 94.9393 42.4141 86.5297 46.3969 79.7112L60.6431 55.3158C64.9323 48.0426 75.5786 48.0426 79.7911 55.3158L94.0373 79.6354C97.2542 85.0903 95.033 91.53 90.2077 94.4848C97.8669 90.9239 101.62 81.3022 96.9478 73.2714Z" fill="white"/>
<path d="M70.3334 66.1153L62.7909 79.7521C60.5281 83.8274 63.3943 89 67.9198 89H83.0802C87.6057 89 90.4719 83.9058 88.2091 79.7521L80.5912 66.1153C78.3284 61.9616 72.5961 61.9616 70.3334 66.1153Z" fill="white"/>
</svg>
